{
	"asset":{
		"generator":"Khronos glTF Blender I/O v4.0.44",
		"version":"2.0"
	},
	"extensionsUsed":[
		"KHR_materials_emissive_strength"
	],
	"scene":0,
	"scenes":[
		{
			"name":"Scene",
			"nodes":[
				0,
				1,
				2,
				3,
				4,
				5
			]
		}
	],
	"nodes":[
		{
			"mesh":0,
			"name":"cbox_green",
			"rotation":[
				0,
				-0.7071068286895752,
				0.7071068286895752,
				5.338509012631221e-08
			]
		},
		{
			"mesh":1,
			"name":"cbox",
			"rotation":[
				0,
				-0.7071068286895752,
				0.7071068286895752,
				5.338509012631221e-08
			]
		},
		{
			"mesh":2,
			"name":"Light",
			"rotation":[
				0,
				0.7071068286895752,
				-0.7071068286895752,
				3.090862321641907e-08
			],
			"translation":[
				-278,
				547.7999877929688,
				-279.5
			]
		},
		{
			"mesh":3,
			"name":"large_box",
			"rotation":[
				0.41943973302841187,
				0.5692716240882874,
				-0.5692717432975769,
				0.41943982243537903
			],
			"scale":[
				165.00001525878906,
				165.00001525878906,
				330
			],
			"translation":[
				-368.0000305175781,
				165.00003051757812,
				-351
			]
		},
		{
			"mesh":4,
			"name":"small_box",
			"rotation":[
				0.10217303037643433,
				0.6996862292289734,
				-0.6996861100196838,
				0.10217301547527313
			],
			"scale":[
				82.50000762939453,
				82.50000762939453,
				82.50000762939453
			],
			"translation":[
				-185.00001525878906,
				82.50001525878906,
				-169
			]
		},
		{
			"mesh":5,
			"name":"cbox_red",
			"rotation":[
				0,
				-0.7071068286895752,
				0.7071068286895752,
				5.338509012631221e-08
			]
		}
	],
	"materials":[
		{
			"doubleSided":true,
			"name":"cbox_green",
			"pbrMetallicRoughness":{
				"baseColorFactor":[
					0,
					0.5,
					0,
					1
				],
				"metallicFactor":0,
				"roughnessFactor":0.5
			}
		},
		{
			"doubleSided":true,
			"name":"cbox",
			"pbrMetallicRoughness":{
				"baseColorFactor":[
					0.4000000059604645,
					0.4000000059604645,
					0.4000000059604645,
					1
				],
				"metallicFactor":0,
				"roughnessFactor":0.5
			}
		},
		{
			"doubleSided":true,
			"emissiveFactor":[
				1,
				1,
				1
			],
			"extensions":{
				"KHR_materials_emissive_strength":{
					"emissiveStrength":100
				}
			},
			"name":"Light",
			"pbrMetallicRoughness":{
				"baseColorFactor":[
					0,
					0,
					0,
					1
				]
			}
		},
		{
			"doubleSided":true,
			"name":"large_box",
			"pbrMetallicRoughness":{
				"baseColorFactor":[
					0.5,
					0.5,
					0.5,
					1
				],
				"metallicFactor":0,
				"roughnessFactor":0.5
			}
		},
		{
			"doubleSided":true,
			"name":"small_box",
			"pbrMetallicRoughness":{
				"baseColorFactor":[
					0.5,
					0.5,
					0.5,
					1
				],
				"metallicFactor":0,
				"roughnessFactor":0.5
			}
		},
		{
			"doubleSided":true,
			"name":"cbox_red",
			"pbrMetallicRoughness":{
				"baseColorFactor":[
					0.5,
					0,
					0,
					1
				],
				"metallicFactor":0,
				"roughnessFactor":0.5
			}
		}
	],
	"meshes":[
		{
			"name":"cbox_green",
			"primitives":[
				{
					"attributes":{
						"POSITION":0,
						"NORMAL":1
					},
					"indices":2,
					"material":0
				}
			]
		},
		{
			"name":"cbox",
			"primitives":[
				{
					"attributes":{
						"POSITION":3,
						"NORMAL":4
					},
					"indices":5,
					"material":1
				}
			]
		},
		{
			"name":"Light",
			"primitives":[
				{
					"attributes":{
						"POSITION":6,
						"NORMAL":7
					},
					"indices":8,
					"material":2
				}
			]
		},
		{
			"name":"large_box",
			"primitives":[
				{
					"attributes":{
						"POSITION":9,
						"NORMAL":10
					},
					"indices":11,
					"material":3
				}
			]
		},
		{
			"name":"small_box",
			"primitives":[
				{
					"attributes":{
						"POSITION":12,
						"NORMAL":13
					},
					"indices":11,
					"material":4
				}
			]
		},
		{
			"name":"cbox_red",
			"primitives":[
				{
					"attributes":{
						"POSITION":14,
						"NORMAL":15
					},
					"indices":8,
					"material":5
				}
			]
		}
	],
	"accessors":[
		{
			"bufferView":0,
			"componentType":5126,
			"count":4,
			"max":[
				0,
				559.2000122070312,
				0
			],
			"min":[
				0,
				0,
				-548.7999877929688
			],
			"type":"VEC3"
		},
		{
			"bufferView":1,
			"componentType":5126,
			"count":4,
			"type":"VEC3"
		},
		{
			"bufferView":2,
			"componentType":5123,
			"count":6,
			"type":"SCALAR"
		},
		{
			"bufferView":3,
			"componentType":5126,
			"count":12,
			"max":[
				556,
				559.2000122070312,
				0
			],
			"min":[
				0,
				0,
				-548.7999877929688
			],
			"type":"VEC3"
		},
		{
			"bufferView":4,
			"componentType":5126,
			"count":12,
			"type":"VEC3"
		},
		{
			"bufferView":5,
			"componentType":5123,
			"count":18,
			"type":"SCALAR"
		},
		{
			"bufferView":6,
			"componentType":5126,
			"count":4,
			"max":[
				65,
				52.5,
				0
			],
			"min":[
				-65.00001525878906,
				-52.5,
				0
			],
			"type":"VEC3"
		},
		{
			"bufferView":7,
			"componentType":5126,
			"count":4,
			"type":"VEC3"
		},
		{
			"bufferView":8,
			"componentType":5123,
			"count":6,
			"type":"SCALAR"
		},
		{
			"bufferView":9,
			"componentType":5126,
			"count":24,
			"max":[
				0.5,
				0.5,
				0.5
			],
			"min":[
				-0.5,
				-0.5,
				-0.5
			],
			"type":"VEC3"
		},
		{
			"bufferView":10,
			"componentType":5126,
			"count":24,
			"type":"VEC3"
		},
		{
			"bufferView":11,
			"componentType":5123,
			"count":36,
			"type":"SCALAR"
		},
		{
			"bufferView":12,
			"componentType":5126,
			"count":24,
			"max":[
				1,
				1,
				1
			],
			"min":[
				-1,
				-1,
				-1
			],
			"type":"VEC3"
		},
		{
			"bufferView":13,
			"componentType":5126,
			"count":24,
			"type":"VEC3"
		},
		{
			"bufferView":14,
			"componentType":5126,
			"count":4,
			"max":[
				556,
				559.2000122070312,
				0
			],
			"min":[
				549.5999755859375,
				0,
				-548.7999877929688
			],
			"type":"VEC3"
		},
		{
			"bufferView":15,
			"componentType":5126,
			"count":4,
			"type":"VEC3"
		}
	],
	"bufferViews":[
		{
			"buffer":0,
			"byteLength":48,
			"byteOffset":0,
			"target":34962
		},
		{
			"buffer":0,
			"byteLength":48,
			"byteOffset":48,
			"target":34962
		},
		{
			"buffer":0,
			"byteLength":12,
			"byteOffset":96,
			"target":34963
		},
		{
			"buffer":0,
			"byteLength":144,
			"byteOffset":108,
			"target":34962
		},
		{
			"buffer":0,
			"byteLength":144,
			"byteOffset":252,
			"target":34962
		},
		{
			"buffer":0,
			"byteLength":36,
			"byteOffset":396,
			"target":34963
		},
		{
			"buffer":0,
			"byteLength":48,
			"byteOffset":432,
			"target":34962
		},
		{
			"buffer":0,
			"byteLength":48,
			"byteOffset":480,
			"target":34962
		},
		{
			"buffer":0,
			"byteLength":12,
			"byteOffset":528,
			"target":34963
		},
		{
			"buffer":0,
			"byteLength":288,
			"byteOffset":540,
			"target":34962
		},
		{
			"buffer":0,
			"byteLength":288,
			"byteOffset":828,
			"target":34962
		},
		{
			"buffer":0,
			"byteLength":72,
			"byteOffset":1116,
			"target":34963
		},
		{
			"buffer":0,
			"byteLength":288,
			"byteOffset":1188,
			"target":34962
		},
		{
			"buffer":0,
			"byteLength":288,
			"byteOffset":1476,
			"target":34962
		},
		{
			"buffer":0,
			"byteLength":48,
			"byteOffset":1764,
			"target":34962
		},
		{
			"buffer":0,
			"byteLength":48,
			"byteOffset":1812,
			"target":34962
		}
	],
	"buffers":[
		{
			"byteLength":1860,
			"uri":"cornell_box.bin"
		}
	]
}
