# Blender 4.1.0
# www.blender.org
mtllib cube.mtl
o Cube
v 0.679628 -1.626580 -4.274582
v 0.766604 -3.604780 -3.993227
v 1.206422 -1.332220 -2.367794
v 1.293398 -3.310420 -2.086438
v -1.247785 -1.635394 -3.740729
v -1.160810 -3.613594 -3.459374
v -0.720991 -1.341034 -1.833941
v -0.634016 -3.319234 -1.552586
vn -0.0435 0.9891 -0.1407
vn 0.2634 0.1472 0.9534
vn -0.9637 -0.0044 0.2669
vn 0.0435 -0.9891 0.1407
vn 0.9637 0.0044 -0.2669
vn -0.2634 -0.1472 -0.9534
vt 0.625000 0.500000
vt 0.875000 0.500000
vt 0.875000 0.750000
vt 0.625000 0.750000
vt 0.375000 0.750000
vt 0.625000 1.000000
vt 0.375000 1.000000
vt 0.375000 0.000000
vt 0.625000 0.000000
vt 0.625000 0.250000
vt 0.375000 0.250000
vt 0.125000 0.500000
vt 0.375000 0.500000
vt 0.125000 0.750000
s 0
usemtl Material
f 1/1/1 5/2/1 7/3/1 3/4/1
f 4/5/2 3/4/2 7/6/2 8/7/2
f 8/8/3 7/9/3 5/10/3 6/11/3
f 6/12/4 2/13/4 4/5/4 8/14/4
f 2/13/5 1/1/5 3/4/5 4/5/5
f 6/11/6 5/10/6 1/1/6 2/13/6
